<svg width="492" height="100" viewBox="0 0 492 100" fill="none" xmlns="http://www.w3.org/2000/svg">
<path d="M138.484 98.7013C137.38 98.7013 136.484 97.8059 136.484 96.7013V4.5974C136.484 3.49284 137.38 2.59741 138.484 2.59741H193.338C194.442 2.59741 195.338 3.49284 195.338 4.59741V13.8442C195.338 14.9487 194.442 15.8442 193.338 15.8442H152.311C151.207 15.8442 150.311 16.7396 150.311 17.8442V43.3247C150.311 44.4292 151.207 45.3247 152.311 45.3247H187.902C189.006 45.3247 189.902 46.2201 189.902 47.3247V56.4416C189.902 57.5461 189.006 58.4416 187.902 58.4416H152.311C151.207 58.4416 150.311 59.337 150.311 60.4416V96.7013C150.311 97.8059 149.416 98.7013 148.311 98.7013H138.484Z" fill="black"/>
<path d="M227.242 100C220.387 100 214.597 98.3117 209.869 94.9351C205.221 91.5584 201.676 87.1429 199.233 81.6883C196.87 76.2338 195.688 70.4329 195.688 64.2857C195.688 58.1385 196.87 52.3377 199.233 46.8831C201.676 41.4286 205.221 37.013 209.869 33.6364C214.597 30.2597 220.387 28.5714 227.242 28.5714C234.017 28.5714 239.729 30.2597 244.378 33.6364C249.105 37.013 252.65 41.4286 255.014 46.8831C257.456 52.3377 258.678 58.1385 258.678 64.2857C258.678 70.4329 257.456 76.2338 255.014 81.6883C252.65 87.1429 249.105 91.5584 244.378 94.9351C239.729 98.3117 234.017 100 227.242 100ZM227.242 87.4026C231.102 87.4026 234.333 86.3204 236.932 84.1558C239.611 81.9913 241.62 79.1342 242.96 75.5844C244.378 72.0346 245.087 68.2684 245.087 64.2857C245.087 60.2165 244.378 56.4502 242.96 52.987C241.62 49.4372 239.611 46.5801 236.932 44.4156C234.333 42.2511 231.102 41.1688 227.242 41.1688C223.381 41.1688 220.112 42.2511 217.433 44.4156C214.754 46.5801 212.745 49.4372 211.406 52.987C210.066 56.4502 209.397 60.2165 209.397 64.2857C209.397 68.2684 210.066 72.0346 211.406 75.5844C212.745 79.1342 214.754 81.9913 217.433 84.1558C220.112 86.3204 223.381 87.4026 227.242 87.4026Z" fill="black"/>
<path d="M267.586 98.7013C266.482 98.7013 265.586 97.8059 265.586 96.7013V31.8701C265.586 30.7656 266.482 29.8701 267.586 29.8701H277.059C278.163 29.8701 279.059 30.7656 279.059 31.8701V38.6749C279.059 38.833 279.187 38.961 279.345 38.961C279.458 38.961 279.561 38.8939 279.608 38.7906C280.792 36.1762 282.618 33.852 285.086 31.8182C287.686 29.6537 291.428 28.5714 296.313 28.5714C297.81 28.5714 299.071 28.658 300.095 28.8312C301.047 28.9807 301.749 29.8015 301.749 30.7657V41.585C301.749 42.5294 300.911 43.2538 299.977 43.1169C298.795 42.9437 297.456 42.8571 295.959 42.8571C290.444 42.8571 286.228 44.5887 283.313 48.0519C280.477 51.4286 279.059 56.9264 279.059 64.5455V96.7013C279.059 97.8059 278.163 98.7013 277.059 98.7013H267.586Z" fill="black"/>
<path d="M311.23 98.7013C310.125 98.7013 309.23 97.8059 309.23 96.7013V31.8701C309.23 30.7656 310.125 29.8701 311.23 29.8701H320.702C321.807 29.8701 322.702 30.7656 322.702 31.8701V39.317C322.702 39.4791 322.834 39.6104 322.996 39.6104C323.106 39.6104 323.206 39.5488 323.257 39.4512C323.963 38.1061 324.959 36.6007 326.248 34.9351C327.666 33.2035 329.517 31.7316 331.802 30.5195C334.087 29.2208 336.963 28.5714 340.429 28.5714C345.078 28.5714 348.938 29.7835 352.011 32.2078C355.054 34.6085 357.324 37.7733 358.821 41.7022C358.848 41.7718 358.915 41.8182 358.989 41.8182C359.058 41.8182 359.12 41.7786 359.15 41.7166C360.803 38.2949 363.19 35.2551 366.311 32.5974C369.462 29.9134 373.638 28.5714 378.838 28.5714C383.25 28.5714 386.992 29.7403 390.065 32.0779C393.137 34.329 395.422 37.4026 396.919 41.2987C398.495 45.1082 399.283 49.4372 399.283 54.2857V96.7013C399.283 97.8059 398.387 98.7013 397.283 98.7013H387.81C386.706 98.7013 385.81 97.8059 385.81 96.7013V56.3636C385.81 51.8615 384.825 48.1818 382.856 45.3247C380.886 42.4675 377.971 41.039 374.11 41.039C370.959 41.039 368.398 41.9913 366.429 43.8961C364.538 45.8009 363.159 48.1818 362.292 51.039C361.426 53.8095 360.992 56.6234 360.992 59.4805V96.7013C360.992 97.8059 360.097 98.7013 358.992 98.7013H349.52C348.415 98.7013 347.52 97.8059 347.52 96.7013V56.3636C347.52 51.8615 346.535 48.1818 344.566 45.3247C342.596 42.4675 339.681 41.039 335.82 41.039C332.669 41.039 330.108 41.9913 328.139 43.8961C326.248 45.8009 324.869 48.1818 324.002 51.039C323.136 53.8095 322.702 56.6234 322.702 59.4805V96.7013C322.702 97.8059 321.807 98.7013 320.702 98.7013H311.23Z" fill="black"/>
<path d="M434.211 28.5714C438.151 28.5714 441.42 29.2641 444.02 30.6493C446.699 32.0346 448.826 33.6364 450.402 35.4545C451.886 37.1665 452.985 38.6481 453.7 39.8995C453.781 40.0408 453.93 40.1299 454.093 40.1299C454.339 40.1299 454.538 39.9306 454.538 39.6848V31.8701C454.538 30.7656 455.434 29.8701 456.538 29.8701H466.011C467.115 29.8701 468.011 30.7656 468.011 31.8701V96.7013C468.011 97.8059 467.115 98.7013 466.011 98.7013H456.538C455.434 98.7013 454.538 97.8059 454.538 96.7013V88.8866C454.538 88.6408 454.339 88.4416 454.093 88.4416C453.93 88.4416 453.781 88.5306 453.7 88.6719C452.985 89.9233 451.886 91.405 450.402 93.1169C448.826 94.9351 446.699 96.5368 444.02 97.9221C441.42 99.3074 438.151 100 434.211 100C429.484 100 425.348 99.0043 421.802 97.013C418.336 94.9351 415.421 92.2078 413.057 88.8312C410.693 85.368 408.921 81.5152 407.739 77.2727C406.636 73.0303 406.085 68.7013 406.085 64.2857C406.085 59.8701 406.636 55.5411 407.739 51.2987C408.921 47.0563 410.693 43.2467 413.057 39.8701C415.421 36.4069 418.336 33.6796 421.802 31.6883C425.348 29.6104 429.484 28.5714 434.211 28.5714ZM437.166 40.9091C433.305 40.9091 430.075 42.0779 427.475 44.4156C424.875 46.6667 422.905 49.5671 421.566 53.1169C420.305 56.6667 419.675 60.3896 419.675 64.2857C419.675 68.1818 420.305 71.9048 421.566 75.4546C422.905 79.0043 424.875 81.9481 427.475 84.2857C430.075 86.5368 433.305 87.6623 437.166 87.6623C441.026 87.6623 444.217 86.5368 446.738 84.2857C449.338 81.9481 451.269 79.0043 452.529 75.4546C453.868 71.9048 454.538 68.1818 454.538 64.2857C454.538 60.3896 453.868 56.6667 452.529 53.1169C451.269 49.5671 449.338 46.6667 446.738 44.4156C444.217 42.0779 441.026 40.9091 437.166 40.9091Z" fill="black"/>
<path d="M479.874 98.7013C478.768 98.7013 477.872 97.8044 477.874 96.6989L477.987 1.9976C477.988 0.89397 478.883 0 479.987 0H489.344C490.448 0 491.344 0.895431 491.344 2V96.7013C491.344 97.8059 490.448 98.7013 489.344 98.7013H479.874Z" fill="black"/>
<path d="M0 3.39804C0 1.52136 1.38427 0 3.09186 0H23.6698C25.3774 0 26.7616 1.52135 26.7616 3.39804V96.602C26.7616 98.4786 25.3774 100 23.6698 100H3.09186C1.38427 100 0 98.4786 0 96.602V50V3.39804Z" fill="#3D6EFF"/>
<path d="M32.1136 3.39804C32.1136 1.52135 33.4979 0 35.2055 0H55.7834C57.491 0 58.8752 1.52135 58.8752 3.39804V61.3078C58.8752 63.1845 57.491 64.7059 55.7834 64.7059H35.2055C33.4979 64.7059 32.1136 63.1845 32.1136 61.3078V3.39804Z" fill="#3D6EFF" fill-opacity="0.85"/>
<path d="M64.2289 3.39804C64.2289 1.52135 65.6132 0 67.3208 0H87.8987C89.6063 0 90.9905 1.52135 90.9905 3.39804V26.0137C90.9905 27.8904 89.6063 29.4118 87.8987 29.4118H67.3208C65.6132 29.4118 64.2289 27.8904 64.2289 26.0137V3.39804Z" fill="#3D6EFF" fill-opacity="0.65"/>
</svg>
