<svg width="200" height="40" viewBox="0 0 200 40" fill="none" xmlns="http://www.w3.org/2000/svg">
<path d="M56.2963 38.8869C55.8889 38.8869 55.5555 38.5324 55.5555 38.099V1.81236C55.5555 1.37897 55.8889 1.02438 56.2963 1.02438H78.7704C79.1778 1.02438 79.5111 1.37897 79.5111 1.81236V5.45678C79.5111 5.89017 79.1778 6.24476 78.7704 6.24476H61.9222C61.5148 6.24476 61.1815 6.59935 61.1815 7.03274V17.0716C61.1815 17.505 61.5148 17.8596 61.9222 17.8596H76.5555C76.9629 17.8596 77.2963 18.2142 77.2963 18.6476V22.2408C77.2963 22.6742 76.9629 23.0288 76.5555 23.0288H61.9222C61.5148 23.0288 61.1815 23.3834 61.1815 23.8168V38.1029C61.1815 38.5363 60.8481 38.8909 60.4407 38.8909H56.2926L56.2963 38.8869Z" fill="black"/>
<path d="M92.4963 34.4348C94.0667 34.4348 95.3815 34.0093 96.4407 33.1544C97.5296 32.3034 98.3482 31.1765 98.8926 29.7779C99.4704 28.3792 99.7593 26.8938 99.7593 25.3258C99.7593 23.7577 99.4704 22.2369 98.8926 20.8737C98.3482 19.475 97.5296 18.3482 96.4407 17.4972C95.3815 16.6461 94.0667 16.2167 92.4963 16.2167C90.9259 16.2167 89.5926 16.6422 88.5037 17.4972C87.4148 18.3521 86.5963 19.475 86.0519 20.8737C85.5074 22.2369 85.2333 23.7222 85.2333 25.3258C85.2333 26.9293 85.5074 28.3792 86.0519 29.7779C86.5963 31.1765 87.4148 32.3034 88.5037 33.1544C89.5926 34.0054 90.9259 34.4348 92.4963 34.4348ZM92.4963 39.3991C89.7074 39.3991 87.3481 38.7333 85.4259 37.4055C83.5333 36.0739 82.0889 34.3363 81.0963 32.1852C80.1333 30.0379 79.6519 27.7488 79.6519 25.3297C79.6519 22.9106 80.1333 20.6215 81.0963 18.4743C82.0889 16.327 83.5333 14.5856 85.4259 13.2539C87.3519 11.9222 89.7074 11.2603 92.4963 11.2603C95.2852 11.2603 97.5778 11.9261 99.4704 13.2539C101.396 14.5856 102.837 16.3231 103.8 18.4743C104.793 20.6215 105.293 22.9106 105.293 25.3297C105.293 27.7488 104.796 30.0379 103.8 32.1852C102.837 34.3324 101.396 36.0739 99.4704 37.4055C97.5778 38.7372 95.2519 39.3991 92.4963 39.3991Z" fill="#040404"/>
<path d="M108.848 38.8868C108.441 38.8868 108.107 38.5322 108.107 38.0988V12.5564C108.107 12.123 108.441 11.7684 108.848 11.7684H112.852C113.259 11.7684 113.593 12.123 113.593 12.5564V15.2237C113.593 15.2946 113.644 15.3498 113.711 15.3498C113.756 15.3498 113.796 15.3222 113.819 15.2788C114.3 14.2505 115.044 13.3365 116.048 12.5367C117.107 11.6856 118.63 11.2562 120.619 11.2562C121.23 11.2562 121.741 11.2916 122.159 11.3586C122.17 11.3586 122.185 11.3586 122.196 11.3626C122.563 11.4177 122.833 11.7487 122.833 12.1427V16.315C122.833 16.7248 122.493 17.04 122.111 16.9888C121.63 16.9218 121.085 16.8863 120.474 16.8863C118.23 16.8863 116.515 17.5679 115.326 18.9311C114.17 20.2628 113.593 22.4258 113.593 25.4281V38.0988C113.593 38.5322 113.259 38.8868 112.852 38.8868H108.848Z" fill="#060606"/>
<path d="M126.611 38.8871C126.204 38.8871 125.87 38.5325 125.87 38.0992V12.5567C125.87 12.1233 126.204 11.7687 126.611 11.7687H130.615C131.022 11.7687 131.356 12.1233 131.356 12.5567V15.4762C131.356 15.5471 131.411 15.6062 131.478 15.6062C131.522 15.6062 131.563 15.5825 131.585 15.5392C131.87 15.0112 132.278 14.4163 132.8 13.7623C133.378 13.0807 134.13 12.5015 135.059 12.0209C135.989 11.5087 137.159 11.2526 138.57 11.2526C140.463 11.2526 142.033 11.7293 143.285 12.6867C144.522 13.6323 145.444 14.8773 146.056 16.4217C146.067 16.4533 146.096 16.473 146.126 16.473C146.156 16.473 146.181 16.4572 146.193 16.4296C146.867 15.0822 147.837 13.8844 149.107 12.8404C150.389 11.7845 152.089 11.2526 154.207 11.2526C156.004 11.2526 157.526 11.7135 158.778 12.6355C160.03 13.522 160.959 14.7315 161.567 16.2681C162.207 17.7692 162.53 19.4752 162.53 21.386V38.0992C162.53 38.5325 162.196 38.8871 161.789 38.8871H157.785C157.378 38.8871 157.044 38.5325 157.044 38.0992V22.2055C157.044 20.4326 156.644 18.9827 155.841 17.8559C155.041 16.7291 153.852 16.1656 152.281 16.1656C151 16.1656 149.956 16.5399 149.156 17.2925C148.385 18.041 147.826 18.9827 147.47 20.1056C147.119 21.1969 146.941 22.304 146.941 23.4308V38.0952C146.941 38.5286 146.607 38.8832 146.2 38.8832H142.196C141.789 38.8832 141.456 38.5286 141.456 38.0952V22.2016C141.456 20.4286 141.056 18.9787 140.252 17.8519C139.452 16.7251 138.263 16.1617 136.693 16.1617C135.411 16.1617 134.367 16.536 133.567 17.2885C132.796 18.0371 132.237 18.9787 131.881 20.1016C131.53 21.193 131.352 22.3001 131.352 23.4269V38.0913C131.352 38.5247 131.019 38.8793 130.611 38.8793H126.607L126.611 38.8871Z" fill="black"/>
<path d="M177.948 16.118C176.378 16.118 175.063 16.579 174.004 17.5009C172.944 18.3874 172.144 19.53 171.6 20.9287C171.085 22.3273 170.83 23.793 170.83 25.3296C170.83 26.8661 171.085 28.3318 171.6 29.7304C172.144 31.1291 172.948 32.2874 174.004 33.2094C175.063 34.0959 176.378 34.5411 177.948 34.5411C179.518 34.5411 180.818 34.0959 181.844 33.2094C182.904 32.2874 183.689 31.1291 184.2 29.7304C184.744 28.3318 185.018 26.8661 185.018 25.3296C185.018 23.793 184.744 22.3273 184.2 20.9287C183.685 19.53 182.9 18.3874 181.844 17.5009C180.818 16.579 179.518 16.118 177.948 16.118ZM176.744 11.2562C178.348 11.2562 179.678 11.528 180.737 12.0757C181.826 12.6233 182.693 13.2537 183.333 13.9708C183.937 14.6445 184.381 15.2276 184.674 15.7201C184.707 15.7792 184.767 15.8147 184.833 15.8147C184.933 15.8147 185.018 15.728 185.018 15.6177V12.5603C185.018 12.1269 185.352 11.7723 185.759 11.7723H189.763C190.17 11.7723 190.504 12.1269 190.504 12.5603V38.1028C190.504 38.5361 190.17 38.8907 189.763 38.8907H185.759C185.352 38.8907 185.018 38.5361 185.018 38.1028V35.0454C185.018 34.939 184.937 34.8484 184.833 34.8484C184.77 34.8484 184.707 34.8838 184.674 34.9429C184.381 35.4354 183.937 36.0185 183.333 36.6923C182.693 37.4093 181.826 38.0397 180.737 38.5874C179.678 39.135 178.348 39.4069 176.744 39.4069C174.818 39.4069 173.137 39.0129 171.693 38.2288C170.281 37.4093 169.096 36.3337 168.133 35.006C167.17 33.6428 166.448 32.122 165.97 30.4514C165.522 28.7809 165.296 27.0749 165.296 25.3335C165.296 23.5921 165.522 21.89 165.97 20.2155C166.452 18.545 167.174 17.0439 168.133 15.7122C169.096 14.349 170.281 13.2734 171.693 12.4894C173.137 11.6699 174.818 11.2601 176.744 11.2601V11.2562Z" fill="black"/>
<path d="M195.259 38.887C194.848 38.887 194.519 38.5324 194.519 38.099L194.563 0.787983C194.563 0.354592 194.896 0 195.304 0H199.259C199.667 0 200 0.354592 200 0.787983V38.099C200 38.5324 199.667 38.887 199.259 38.887H195.259Z" fill="black"/>
<path fill-rule="evenodd" clip-rule="evenodd" d="M0 1.33957C0 0.598867 0.562963 0 1.25926 0H9.63704C10.3333 0 10.8963 0.598867 10.8963 1.33957V38.0596C10.8963 38.8003 10.3333 39.3991 9.63704 39.3991H1.25926C0.562963 39.3991 0 38.8003 0 38.0596V1.33957Z" fill="#3B82F6"/>
<path opacity="0.85" d="M22.7037 0H14.3296C13.6342 0 13.0704 0.599746 13.0704 1.33957V24.1556C13.0704 24.8954 13.6342 25.4952 14.3296 25.4952H22.7037C23.3992 25.4952 23.963 24.8954 23.963 24.1556V1.33957C23.963 0.599746 23.3992 0 22.7037 0Z" fill="#3B82F6"/>
<path opacity="0.65" d="M35.7777 0H27.4037C26.7082 0 26.1444 0.599746 26.1444 1.33957V10.2477C26.1444 10.9875 26.7082 11.5873 27.4037 11.5873H35.7777C36.4732 11.5873 37.037 10.9875 37.037 10.2477V1.33957C37.037 0.599746 36.4732 0 35.7777 0Z" fill="#3B82F6"/>
</svg>
